<svg class="dib h2 w2" fill="currentColor" xmlns="http://www.w3.org/2000/svg" viewBox="0 0 16 16" fill-rule="evenodd" clip-rule="evenodd" stroke-linejoin="round" stroke-miterlimit="1.414"> <path d="M83.762,17.058H16.238C10.042,17.058,5,22.099,5,28.295v43.408c0,6.197,5.042,11.239,11.238,11.239h67.523   C89.958,82.942,95,77.9,95,71.703V28.295C95,22.099,89.958,17.058,83.762,17.058z M16.238,20.241h67.523   c2.854,0,5.359,1.496,6.79,3.74L55.921,56.688c-3.266,3.082-8.576,3.082-11.841,0L9.448,23.981   C10.88,21.737,13.385,20.241,16.238,20.241z M8.261,72.761c-0.045-0.347-0.077-0.698-0.077-1.058V28.295   c0-0.358,0.031-0.71,0.077-1.057L32.361,50L8.261,72.761z M83.762,79.758H16.238c-2.854,0-5.359-1.495-6.79-3.739L34.68,52.189   l7.216,6.813c2.233,2.111,5.169,3.167,8.104,3.167s5.872-1.056,8.105-3.167l7.215-6.813l25.231,23.829   C89.121,78.263,86.615,79.758,83.762,79.758z M91.816,28.295v43.408c0,0.361-0.032,0.711-0.077,1.058L67.639,50l24.101-22.76   C91.784,27.586,91.816,27.938,91.816,28.295z"></svg>
