<?xml version="1.0" encoding="utf-8"?>
<!-- Generator: Adobe Illustrator 23.0.1, SVG Export Plug-In . SVG Version: 6.00 Build 0)  -->
<svg version="1.1" id="Layer_1" xmlns="http://www.w3.org/2000/svg" xmlns:xlink="http://www.w3.org/1999/xlink" x="0px" y="0px"
	 viewBox="0 0 116.4 134.4" style="enable-background:new 0 0 116.4 134.4;" xml:space="preserve">
<style type="text/css">
	.st0{fill:#FFFFFF;stroke:#000000;stroke-width:2;}
	.st1{fill:#FFFFFF;stroke:#000000;stroke-width:0.75;}
	.st2{opacity:0.25;enable-background:new    ;}
	.st3{fill:#2B2B2B;}
	.st4{fill:#CC1D26;}
	.st5{clip-path:url(#SVGID_2_);}
	.st6{fill:#ED2024;}
	.st7{fill:#FFFFFF;}
	.st8{clip-path:url(#SVGID_4_);}
</style>
<g>
	<path class="st0" d="M58.2,1.2L1,34.2v66l57.2,33l57.2-33v-66L58.2,1.2z"/>
	<g>
		<path class="st1" d="M58.2,4.5C39.5,16,24.1,26.6,3.9,35.8c1.5,21.8,1.5,41,0,62.7c20.3,9.2,35.6,19.8,54.3,31.4
			c18.8-11.5,33.9-22,54.3-31.4c-1.8-22-1.8-40.7,0-62.7C92.1,26.5,77,16,58.2,4.5z"/>
	</g>
</g>
<path d="M27.9,90.4c-0.1,0.5-0.3,0.9-0.4,1.2c-0.1,0.3-0.3,0.6-0.4,0.9c-0.4,0.7-0.9,1.2-1.6,1.7c-1.3,0.8-2.9,0.9-4.3,0.4
	c-1.3-0.3-2.4-1-3.1-2.1c-0.7-1-1-2.3-0.7-3.6l2.4,0.7c-0.1,0.4,0,0.9,0.1,1.3c0.3,0.8,1.1,1.4,1.9,1.6c1.8,0.5,3-0.3,3.6-2.3
	l0.4-1.4c-1.1,0.7-2.5,0.8-3.7,0.4c-1.3-0.4-2.4-1.3-3-2.5c-0.6-1.3-0.7-2.8-0.3-4.2c0.4-1.4,1.2-2.6,2.4-3.4c1.2-0.8,2.7-1,4.1-0.6
	c1.2,0.3,2.3,1.2,2.8,2.4l0.4-1.2l2.4,0.7L27.9,90.4z M27,84.9c0.3-0.8,0.2-1.8-0.1-2.6c-0.4-0.8-1.1-1.3-1.9-1.5
	c-0.8-0.3-1.7-0.2-2.5,0.3c-0.7,0.5-1.2,1.2-1.4,2.1c-0.3,0.8-0.2,1.7,0.1,2.5c0.3,0.8,1,1.4,1.9,1.6c0.8,0.3,1.7,0.2,2.5-0.3
	C26.3,86.5,26.8,85.8,27,84.9z M42.1,93.4c-0.1,0.5-0.2,0.9-0.3,1.3c-0.1,0.3-0.2,0.7-0.3,1c-0.3,0.7-0.8,1.3-1.4,1.7
	c-1.2,0.9-2.8,1.2-4.3,0.8c-1.3-0.2-2.4-0.8-3.3-1.8c-0.8-1-1.2-2.2-1-3.5l2.5,0.5c0,0.4,0.1,0.9,0.2,1.3c0.4,0.8,1.1,1.3,2,1.4
	c1.8,0.4,2.9-0.5,3.3-2.7l0.3-1.4c-1.1,0.7-2.4,1-3.7,0.8c-1.4-0.2-2.6-1-3.3-2.2c-0.7-1.2-1-2.7-0.6-4.1c0.2-1.4,1-2.7,2.1-3.6
	c1.1-0.9,2.6-1.2,4-0.9c1.3,0.2,2.4,1,3.1,2.1l0.2-1.2l2.5,0.5L42.1,93.4z M40.7,88.1c0.2-0.9,0.1-1.8-0.3-2.6
	c-0.4-0.7-1.2-1.2-2-1.3c-0.8-0.2-1.7,0-2.4,0.6c-1.3,1.2-1.6,3-0.9,4.6c0.4,0.8,1.1,1.3,2,1.4c0.8,0.2,1.7,0,2.4-0.5
	C40.1,89.7,40.5,88.9,40.7,88.1z M47.2,83.8l2.5,0.2l-0.1,0.9c0.4-0.3,0.8-0.6,1.3-0.8c0.4-0.1,0.9-0.2,1.3-0.2
	c0.7,0.1,1.4,0.4,2,0.8l-1.3,2.1c-0.4-0.3-0.8-0.6-1.3-0.6c-1.4-0.1-2.1,0.8-2.3,2.8l-0.5,5.4l-2.5-0.2L47.2,83.8z M65.4,90.2
	l-7.8,0.1c0.1,0.8,0.4,1.5,0.9,2c0.5,0.5,1.3,0.8,2,0.7c0.5,0,1.1-0.1,1.5-0.4c0.5-0.5,1-1,1.4-1.6l2.1,1.1c-0.3,0.5-0.6,1-1,1.4
	c-0.3,0.4-0.7,0.7-1.2,1c-0.4,0.2-0.9,0.4-1.3,0.5c-0.5,0.1-1,0.2-1.6,0.2c-1.5,0.1-2.9-0.4-3.9-1.5c-1-1.1-1.6-2.5-1.5-4
	c-0.1-1.5,0.4-2.9,1.4-4c2.1-2,5.4-2.1,7.6-0.1c1,1.1,1.5,2.5,1.4,4L65.4,90.2z M62.8,88.2c-0.2-1.2-1.3-2-2.5-1.9
	c-0.3,0-0.6,0-0.9,0.1c-0.3,0.1-0.5,0.2-0.7,0.4c-0.2,0.2-0.4,0.4-0.5,0.6c-0.2,0.2-0.3,0.5-0.3,0.8L62.8,88.2z M72.7,99.8l-2.5,0.3
	l-2.2-16l2.5-0.3l0.2,1.1c0.8-1,1.9-1.7,3.1-1.9c1.4-0.2,2.8,0.2,3.9,1.1c2.3,2,2.7,5.3,1.1,7.8c-1.6,2.2-4.6,2.7-6.8,1.2
	c-0.1-0.1-0.1-0.1-0.2-0.2L72.7,99.8z M77.1,88.3c-0.1-0.9-0.5-1.7-1.2-2.3c-0.6-0.5-1.5-0.8-2.3-0.7c-0.8,0.1-1.6,0.5-2.1,1.2
	c-0.5,0.7-0.7,1.6-0.5,2.5c0.1,0.9,0.5,1.7,1.2,2.3c0.6,0.5,1.5,0.8,2.3,0.6c0.8-0.1,1.5-0.5,2-1.2C77,90,77.2,89.1,77.1,88.3
	L77.1,88.3z M92.4,85.6l-7.6,1.8c0.2,0.7,0.7,1.4,1.3,1.8c0.6,0.4,1.4,0.5,2.1,0.3c0.5-0.1,1-0.4,1.4-0.8c0.4-0.6,0.8-1.2,1-1.8
	l2.3,0.6c-0.2,0.5-0.4,1.1-0.7,1.6c-0.3,0.4-0.6,0.8-0.9,1.2c-0.4,0.3-0.8,0.6-1.2,0.8c-0.5,0.2-1,0.4-1.5,0.5
	c-1.4,0.4-2.9,0.2-4.1-0.6c-1.2-0.8-2.1-2.1-2.3-3.6c-0.4-1.4-0.2-2.9,0.5-4.2c0.7-1.2,2-2.1,3.4-2.3c1.4-0.4,2.8-0.2,4,0.6
	c1.2,0.9,2,2.2,2.3,3.6L92.4,85.6z M89.4,84.2c-0.5-1.1-1.7-1.7-2.9-1.3c-0.3,0.1-0.6,0.2-0.8,0.3c-0.2,0.1-0.4,0.3-0.6,0.5
	c-0.2,0.2-0.3,0.5-0.4,0.7c-0.1,0.3-0.2,0.6-0.2,0.9L89.4,84.2z M94,71.1l4.8,17.5l-2.4,0.7l-4.8-17.5L94,71.1z"/>
<g>
	<path class="st2" d="M39.8,53.5c3.3-1.3,6.9-1.1,10,0.6c0.5,0.3,1,0.6,1.4,1c2.5,2.4,1.5,5.2-1.9,6.4l9.8,9.6
		c0.4,0.4,0.2,0.8-0.6,0.8c-0.7,0-1.4-0.2-2-0.6L47.2,62c-0.2,0-0.4,0.1-0.6,0.1c-3.2,0.3-6.6-0.8-8.3-2.6
		C36.3,57.4,36.8,54.8,39.8,53.5z"/>
	<path class="st3" d="M58.2,45L58.2,45c0.8,0,1.5,0.7,1.5,1.5v24.2c0,0.8-0.7,1.5-1.5,1.5l0,0c-0.8,0-1.5-0.7-1.5-1.5V46.5
		C56.7,45.7,57.4,45,58.2,45z"/>
	<circle class="st4" cx="58.2" cy="40.1" r="10"/>
	<g>
		<defs>
			<circle id="SVGID_1_" cx="58.2" cy="40.1" r="10"/>
		</defs>
		<clipPath id="SVGID_2_">
			<use xlink:href="#SVGID_1_"  style="overflow:visible;"/>
		</clipPath>
		<g class="st5">
			<circle class="st6" cx="63.4" cy="34.8" r="15.2"/>
		</g>
	</g>
	<circle class="st7" cx="61.2" cy="37.1" r="1.5"/>
	<path d="M57.2,70.7V46.5c0-0.7,0.5-1.4,1.3-1.5h-0.2c-0.8,0-1.5,0.7-1.5,1.5v24.2c0,0.8,0.7,1.5,1.5,1.5c0,0,0,0,0,0h0.2
		C57.7,72.1,57.2,71.4,57.2,70.7z"/>
	<circle class="st4" cx="58.2" cy="40.1" r="10"/>
	<g>
		<defs>
			<circle id="SVGID_3_" cx="58.2" cy="40.1" r="10"/>
		</defs>
		<clipPath id="SVGID_4_">
			<use xlink:href="#SVGID_3_"  style="overflow:visible;"/>
		</clipPath>
		<g class="st8">
			<circle class="st6" cx="63.4" cy="34.8" r="15.2"/>
		</g>
	</g>
	<circle class="st7" cx="61.2" cy="37.1" r="1.5"/>
</g>
</svg>
