<svg xmlns="http://www.w3.org/2000/svg" xmlns:xlink="http://www.w3.org/1999/xlink" version="1.1" x="0px" y="0px" viewBox="0 0 65 65" enable-background="new 0 0 65 65" xml:space="preserve"><path d="M61.9,52.9V8.6c0-1.3-1.1-2.4-2.4-2.4c-1.3,0-2.4,1.1-2.4,2.4v6.9h-5.9v-1.3c0-1.4-1.2-2.6-2.6-2.6c-1.4,0-2.6,1.2-2.6,2.6  v1.3h-2.7v-1.3c0-1.4-1.2-2.6-2.6-2.6c-1.4,0-2.6,1.2-2.6,2.6v1.3H19.5v-1.3c0-1.4-1.2-2.6-2.6-2.6c-1.4,0-2.6,1.2-2.6,2.6v1.3H7.8  V8.6c0-1.3-1.1-2.4-2.4-2.4c-1.3,0-2.4,1.1-2.4,2.4v44.2h-3.3v5.9h65.5v-5.9H61.9z M58.7,8.6c0-0.5,0.4-0.9,0.9-0.9  c0.5,0,0.9,0.4,0.9,0.9v44.2h-1.7V8.6z M20.6,33.8c1.4,0,2.6-1.2,2.6-2.6v-1.3h2.5v1.3c0,1.4,1.2,2.6,2.6,2.6c1.4,0,2.6-1.2,2.6-2.6  v-1.3h2.7v1.3c0,1.4,1.2,2.6,2.6,2.6c1.4,0,2.6-1.2,2.6-2.6v-1.3h18.3v11.3H36.3v-1.3c0-1.4-1.2-2.6-2.6-2.6c-1.4,0-2.6,1.2-2.6,2.6  v1.3h-5.3v-1.3c0-1.4-1.2-2.6-2.6-2.6c-1.4,0-2.6,1.2-2.6,2.6v1.3H7.8V29.9H18v1.3C18,32.6,19.2,33.8,20.6,33.8z M19.5,31.2V27  c0-0.6,0.5-1.1,1.1-1.1c0.6,0,1.1,0.5,1.1,1.1v4.2c0,0.6-0.5,1.1-1.1,1.1C20,32.3,19.5,31.8,19.5,31.2z M27.3,31.2V27  c0-0.6,0.5-1.1,1.1-1.1c0.6,0,1.1,0.5,1.1,1.1v4.2c0,0.6-0.5,1.1-1.1,1.1C27.8,32.3,27.3,31.8,27.3,31.2z M35.2,31.2V27  c0-0.6,0.5-1.1,1.1-1.1c0.6,0,1.1,0.5,1.1,1.1v4.2c0,0.6-0.5,1.1-1.1,1.1C35.7,32.3,35.2,31.8,35.2,31.2z M34.8,39.8V44  c0,0.6-0.5,1.1-1.1,1.1c-0.6,0-1.1-0.5-1.1-1.1v-4.2c0-0.6,0.5-1.1,1.1-1.1C34.3,38.7,34.8,39.2,34.8,39.8z M24.2,39.8V44  c0,0.6-0.5,1.1-1.1,1.1c-0.6,0-1.1-0.5-1.1-1.1v-4.2c0-0.6,0.5-1.1,1.1-1.1C23.7,38.7,24.2,39.2,24.2,39.8z M20.5,42.7V44  c0,1.4,1.2,2.6,2.6,2.6c1.4,0,2.6-1.2,2.6-2.6v-1.4h5.3V44c0,1.4,1.2,2.6,2.6,2.6c1.4,0,2.6-1.2,2.6-2.6v-1.4h20.9v10.2H7.8V42.7  H20.5z M47.6,14.2c0-0.6,0.5-1.1,1.1-1.1c0.6,0,1.1,0.5,1.1,1.1v4.2c0,0.6-0.5,1.1-1.1,1.1c-0.6,0-1.1-0.5-1.1-1.1V14.2z M39.7,14.2  c0-0.6,0.5-1.1,1.1-1.1c0.6,0,1.1,0.5,1.1,1.1v4.2c0,0.6-0.5,1.1-1.1,1.1c-0.6,0-1.1-0.5-1.1-1.1V14.2z M15.8,14.2  c0-0.6,0.5-1.1,1.1-1.1c0.6,0,1.1,0.5,1.1,1.1v4.2c0,0.6-0.5,1.1-1.1,1.1c-0.6,0-1.1-0.5-1.1-1.1V14.2z M14.3,17v1.3  c0,1.4,1.2,2.6,2.6,2.6c1.4,0,2.6-1.2,2.6-2.6V17h18.7v1.3c0,1.4,1.2,2.6,2.6,2.6c1.4,0,2.6-1.2,2.6-2.6V17h2.7v1.3  c0,1.4,1.2,2.6,2.6,2.6c1.4,0,2.6-1.2,2.6-2.6V17h5.9v11.3H38.9V27c0-1.4-1.2-2.6-2.6-2.6c-1.4,0-2.6,1.2-2.6,2.6v1.3H31V27  c0-1.4-1.2-2.6-2.6-2.6c-1.4,0-2.6,1.2-2.6,2.6v1.3h-2.5V27c0-1.4-1.2-2.6-2.6-2.6c-1.4,0-2.6,1.2-2.6,2.6v1.3H7.8V17H14.3z   M4.6,8.6c0-0.5,0.4-0.9,0.9-0.9c0.5,0,0.9,0.4,0.9,0.9v44.2H4.6V8.6z M63.8,57.2H1.3v-2.9h62.5V57.2z"></path></svg>