<svg xmlns="http://www.w3.org/2000/svg" xmlns:xlink="http://www.w3.org/1999/xlink" version="1.1" x="0px" y="0px" viewBox="0 0 100 100" enable-background="new 0 0 100 100" xml:space="preserve"><path d="M10,70c0,5.5,4.5,10,10,10c3.7,0,6.9-2,8.7-5H30c12,0,18.5-6.4,23.7-11.5  C58.5,58.8,62.3,55,70,55h1.3c1.7,3,5,5,8.7,5c5.5,0,10-4.5,10-10c0-5.5-4.5-10-10-10c-3.7,0-6.9,2-8.7,5H70  c-7.9,0-11.8-3.8-16.7-8.6C47.9,31,41.8,25,30,25h-1.3c-1.7-3-5-5-8.7-5c-5.5,0-10,4.5-10,10c0,5.5,4.5,10,10,10c3.7,0,6.9-2,8.7-5  H30c7.7,0,11.5,3.8,16.3,8.5c2.2,2.2,4.6,4.5,7.6,6.6c-2.7,1.9-5,4.2-7.2,6.3C41.8,61.2,37.9,65,30,65h-1.3c-1.7-3-5-5-8.7-5  C14.5,60,10,64.5,10,70z M26,30c0,3.3-2.7,6-6,6s-6-2.7-6-6s2.7-6,6-6S26,26.7,26,30z M74,50c0-3.3,2.7-6,6-6s6,2.7,6,6s-2.7,6-6,6  S74,53.3,74,50z M14,70c0-3.3,2.7-6,6-6s6,2.7,6,6s-2.7,6-6,6S14,73.3,14,70z"></path></svg>