<svg xmlns="http://www.w3.org/2000/svg" xmlns:xlink="http://www.w3.org/1999/xlink" version="1.1" x="0px" y="0px" viewBox="0 0 200 200" enable-background="new 0 0 200 200" xml:space="preserve"><g><g><path fill="#000000" d="M190.625,112.589h-18.75v-6.428h18.75l-0.09-68.661L9.375,37.589l0.089,68.661l12.411-0.089v6.428h-12.5    c-1.692,0-3.285-0.659-4.482-1.857c-1.197-1.197-1.857-2.789-1.857-4.481V37.5c0-1.694,0.66-3.286,1.857-4.482    c1.197-1.197,2.789-1.857,4.482-1.857h181.25c1.693,0,3.284,0.66,4.48,1.857c1.197,1.193,1.858,2.786,1.858,4.482v68.75    c0,1.695-0.661,3.288-1.86,4.483C193.909,111.93,192.315,112.589,190.625,112.589z"></path><rect x="71.875" y="106.161" fill="#000000" width="56.25" height="6.428"></rect></g><g><g><g><path fill="#000000" d="M131.339,137.5h-6.429V90.625c0-2.524,0.982-4.899,2.769-6.689c1.797-1.792,4.171-2.775,6.696-2.775      c2.522,0,4.899,0.983,6.688,2.77c1.792,1.795,2.776,4.171,2.776,6.695v31.25h-6.429v-31.25c0-0.809-0.317-1.574-0.893-2.15      c-1.141-1.138-3.142-1.144-4.294,0.006c-0.569,0.57-0.885,1.335-0.885,2.144V137.5z"></path><path fill="#000000" d="M156.339,121.875h-6.429v-11.071c0-0.81-0.317-1.574-0.893-2.15c-1.141-1.138-3.142-1.144-4.294,0.006      c-0.569,0.57-0.885,1.335-0.885,2.145v11.071h-6.429v-11.071c0-2.523,0.982-4.899,2.769-6.689      c1.797-1.791,4.171-2.775,6.696-2.775c2.522,0,4.899,0.984,6.688,2.77c1.792,1.796,2.776,4.172,2.776,6.695V121.875z"></path><path fill="#000000" d="M168.839,121.875h-6.429v-11.071c0-0.81-0.317-1.574-0.893-2.15c-1.141-1.138-3.142-1.144-4.294,0.006      c-0.569,0.57-0.885,1.335-0.885,2.145v11.071h-6.429v-11.071c0-2.523,0.982-4.899,2.769-6.689      c1.797-1.791,4.171-2.775,6.696-2.775c2.522,0,4.899,0.984,6.688,2.77c1.792,1.796,2.776,4.172,2.776,6.695V121.875z"></path><path fill="#000000" d="M171.964,178.125h-6.429v-9.958l9.375-25v-27.542c0-0.81-0.317-1.573-0.893-2.149      c-1.141-1.139-3.142-1.145-4.294,0.005c-0.569,0.571-0.885,1.335-0.885,2.145v6.25h-6.429v-6.25      c0-2.523,0.982-4.899,2.769-6.689c1.797-1.791,4.171-2.774,6.696-2.774c2.522,0,4.899,0.983,6.688,2.769      c1.792,1.796,2.776,4.172,2.776,6.695v28.708l-9.375,25V178.125z"></path><path fill="#000000" d="M134.464,178.125h-6.429v-8.079c-3.54-3.766-15.625-17.486-15.625-29.352v-12.569      c0-2.523,0.982-4.899,2.769-6.689c1.797-1.791,4.171-2.774,6.696-2.774c2.522,0,4.899,0.983,6.688,2.769      c1.792,1.796,2.776,4.172,2.776,6.695h-6.429c0-0.81-0.317-1.573-0.893-2.149c-1.141-1.139-3.142-1.145-4.294,0.005      c-0.569,0.571-0.885,1.335-0.885,2.145v12.569c0,9.082,10.601,21.691,14.685,25.784l0.938,0.94L134.464,178.125z"></path></g><g><path fill="#000000" d="M175.089,200h-6.429v-18.75l-37.41,0.089L131.339,200h-6.429v-18.75c0-1.688,0.656-3.278,1.851-4.477      c1.211-1.206,2.801-1.862,4.489-1.862h37.5c1.688,0,3.278,0.656,4.476,1.851c1.202,1.203,1.863,2.795,1.863,4.488V200z"></path></g></g><g><g><path fill="#000000" d="M75.09,137.5h-6.429V96.875c0-0.809-0.316-1.574-0.891-2.15c-1.143-1.138-3.142-1.144-4.294,0.006      c-0.569,0.57-0.886,1.335-0.886,2.144v25h-6.429v-25c0-2.524,0.984-4.899,2.77-6.689c1.794-1.792,4.171-2.775,6.695-2.775      c2.524,0,4.901,0.983,6.689,2.77c1.792,1.795,2.775,4.171,2.775,6.695V137.5z"></path><path fill="#000000" d="M62.59,121.875h-6.429v-31.25c0-0.809-0.316-1.574-0.891-2.15c-1.144-1.138-3.145-1.143-4.293,0.004      c-0.57,0.572-0.887,1.335-0.887,2.146v31.25h-6.429v-31.25c0-2.526,0.984-4.902,2.771-6.691c1.791-1.79,4.167-2.773,6.693-2.773      c2.524,0,4.901,0.983,6.689,2.77c1.792,1.795,2.775,4.171,2.775,6.695V121.875z"></path><path fill="#000000" d="M50.09,121.875h-6.429v-25c0-0.809-0.316-1.572-0.891-2.148c-1.144-1.141-3.145-1.144-4.293,0.003      c-0.57,0.572-0.887,1.335-0.887,2.146v25h-6.429v-25c0-2.526,0.984-4.902,2.771-6.691c1.791-1.79,4.167-2.773,6.693-2.773      c2.525,0,4.901,0.983,6.689,2.771c1.792,1.792,2.775,4.169,2.775,6.694V121.875z"></path><path fill="#000000" d="M34.465,178.125h-6.429v-8.792l-9.375-25v-41.208c0-2.526,0.984-4.902,2.771-6.691      c1.791-1.79,4.167-2.773,6.693-2.773c2.525,0,4.901,0.983,6.689,2.771c1.792,1.792,2.775,4.169,2.775,6.694v18.75h-6.429v-18.75      c0-0.81-0.316-1.572-0.891-2.148c-1.144-1.141-3.145-1.144-4.293,0.003c-0.57,0.572-0.887,1.335-0.887,2.146v40.042l9.375,25      V178.125z"></path><path fill="#000000" d="M71.965,178.125h-6.429v-10.704l0.94-0.942c4.085-4.093,14.685-16.702,14.685-25.784v-12.569      c0-0.81-0.316-1.573-0.891-2.149c-1.143-1.139-3.142-1.145-4.294,0.005c-0.569,0.571-0.886,1.335-0.886,2.145h-6.429      c0-2.523,0.984-4.899,2.77-6.689c1.794-1.791,4.171-2.774,6.695-2.774c2.524,0,4.901,0.983,6.689,2.769      c1.792,1.796,2.775,4.172,2.775,6.695v12.569c0,11.865-12.084,25.586-15.625,29.352V178.125z"></path></g><g><path fill="#000000" d="M75.09,200h-6.429v-18.75l-37.411,0.089L31.34,200h-6.429v-18.75c0-1.69,0.659-3.281,1.854-4.479      c1.208-1.203,2.797-1.859,4.485-1.859h37.5c1.688,0,3.277,0.656,4.477,1.851c1.204,1.207,1.862,2.798,1.862,4.488V200z"></path></g></g></g><path fill="#000000" d="M103.214,34.375h-6.428v-6.25c0-0.812-0.315-1.574-0.889-2.144c-0.575-0.576-1.336-0.892-2.147-0.892H75   c-2.526,0-4.904-0.985-6.692-2.773c-1.788-1.787-2.772-4.163-2.772-6.691c0-2.532,0.986-4.911,2.775-6.695   c1.784-1.785,4.16-2.77,6.689-2.77h37.5c0.809,0,1.57-0.316,2.146-0.89c0.572-0.573,0.89-1.336,0.89-2.146V0h6.429v3.125   c0,2.525-0.984,4.901-2.771,6.689c-1.791,1.79-4.166,2.775-6.693,2.775H75c-0.811,0-1.574,0.315-2.147,0.889   c-0.575,0.573-0.889,1.335-0.889,2.147c0,0.811,0.317,1.572,0.889,2.146c0.575,0.574,1.336,0.89,2.147,0.89h18.75   c2.527,0,4.904,0.985,6.691,2.772c1.788,1.783,2.772,4.16,2.772,6.692V34.375z"></path><g><g><rect x="21.875" y="43.661" fill="#000000" width="6.25" height="6.429"></rect><rect x="34.375" y="43.661" fill="#000000" width="6.25" height="6.429"></rect><rect x="46.875" y="43.661" fill="#000000" width="6.25" height="6.429"></rect><rect x="59.375" y="43.661" fill="#000000" width="6.25" height="6.429"></rect><rect x="71.875" y="43.661" fill="#000000" width="6.25" height="6.429"></rect><rect x="84.375" y="43.661" fill="#000000" width="6.25" height="6.429"></rect><rect x="96.875" y="43.661" fill="#000000" width="6.25" height="6.429"></rect><rect x="109.375" y="43.661" fill="#000000" width="6.25" height="6.429"></rect><rect x="121.875" y="43.661" fill="#000000" width="6.25" height="6.429"></rect><rect x="134.375" y="43.661" fill="#000000" width="6.25" height="6.429"></rect><rect x="146.875" y="43.661" fill="#000000" width="6.25" height="6.429"></rect><rect x="159.375" y="43.661" fill="#000000" width="6.25" height="6.429"></rect><rect x="171.875" y="43.661" fill="#000000" width="6.25" height="6.429"></rect></g><g><rect x="15.625" y="56.161" fill="#000000" width="6.25" height="6.429"></rect><rect x="28.125" y="56.161" fill="#000000" width="6.25" height="6.429"></rect><rect x="40.625" y="56.161" fill="#000000" width="6.25" height="6.429"></rect><rect x="53.125" y="56.161" fill="#000000" width="6.25" height="6.429"></rect><rect x="65.625" y="56.161" fill="#000000" width="6.25" height="6.429"></rect><rect x="78.125" y="56.161" fill="#000000" width="6.25" height="6.429"></rect><rect x="90.625" y="56.161" fill="#000000" width="6.25" height="6.429"></rect><rect x="103.125" y="56.161" fill="#000000" width="6.25" height="6.429"></rect><rect x="115.625" y="56.161" fill="#000000" width="6.25" height="6.429"></rect><rect x="128.125" y="56.161" fill="#000000" width="6.25" height="6.429"></rect><rect x="140.625" y="56.161" fill="#000000" width="6.25" height="6.429"></rect><rect x="153.125" y="56.161" fill="#000000" width="6.25" height="6.429"></rect><rect x="165.625" y="56.161" fill="#000000" width="6.25" height="6.429"></rect><rect x="178.125" y="56.161" fill="#000000" width="6.25" height="6.429"></rect></g><g><rect x="21.875" y="68.661" fill="#000000" width="6.25" height="6.429"></rect><rect x="34.375" y="68.661" fill="#000000" width="6.25" height="6.429"></rect><rect x="46.875" y="68.661" fill="#000000" width="6.25" height="6.429"></rect><rect x="59.375" y="68.661" fill="#000000" width="6.25" height="6.429"></rect><rect x="71.875" y="68.661" fill="#000000" width="6.25" height="6.429"></rect><rect x="84.375" y="68.661" fill="#000000" width="6.25" height="6.429"></rect><rect x="96.875" y="68.661" fill="#000000" width="6.25" height="6.429"></rect><rect x="109.375" y="68.661" fill="#000000" width="6.25" height="6.429"></rect><rect x="121.875" y="68.661" fill="#000000" width="6.25" height="6.429"></rect><rect x="134.375" y="68.661" fill="#000000" width="6.25" height="6.429"></rect><rect x="146.875" y="68.661" fill="#000000" width="6.25" height="6.429"></rect><rect x="159.375" y="68.661" fill="#000000" width="6.25" height="6.429"></rect><rect x="171.875" y="68.661" fill="#000000" width="6.25" height="6.429"></rect></g><g><rect x="15.625" y="81.161" fill="#000000" width="6.25" height="6.429"></rect><rect x="28.125" y="81.161" fill="#000000" width="6.25" height="6.429"></rect><rect x="78.125" y="81.161" fill="#000000" width="6.25" height="6.429"></rect><rect x="90.625" y="81.161" fill="#000000" width="6.25" height="6.429"></rect><rect x="103.125" y="81.161" fill="#000000" width="6.25" height="6.429"></rect><rect x="115.625" y="81.161" fill="#000000" width="6.25" height="6.429"></rect><rect x="165.625" y="81.161" fill="#000000" width="6.25" height="6.429"></rect><rect x="153.125" y="81.161" fill="#000000" width="6.25" height="6.429"></rect><rect x="178.125" y="81.161" fill="#000000" width="6.25" height="6.429"></rect></g><rect x="84.375" y="93.661" fill="#000000" width="31.25" height="6.429"></rect></g></g></svg>