<svg xmlns="http://www.w3.org/2000/svg" viewBox="0 0 64 64" x="0px" y="0px"><title>mathematics-subset-intersect-math-set</title><g><path d="M41,2A21.016,21.016,0,0,0,20.208,20.208,20.988,20.988,0,1,0,43.792,43.792,20.988,20.988,0,0,0,41,2ZM23,60a18.988,18.988,0,0,1-2.962-37.745C20.029,22.5,20,22.748,20,23A21.023,21.023,0,0,0,41,44c.252,0,.5-.029.745-.038A19.013,19.013,0,0,1,23,60ZM42,41c0,.321-.032.634-.048.952-.318.016-.631.048-.952.048a18.908,18.908,0,0,1-4.917-.668l5.249-5.249A18.908,18.908,0,0,1,42,41Zm-8.045-.369a18.968,18.968,0,0,1-3.4-1.775l8.3-8.3a18.968,18.968,0,0,1,1.775,3.4ZM28.926,37.66a19.266,19.266,0,0,1-2.586-2.586l8.734-8.734a19.266,19.266,0,0,1,2.586,2.586Zm-3.782-4.218a18.968,18.968,0,0,1-1.775-3.4l6.676-6.676a18.968,18.968,0,0,1,3.4,1.775Zm-2.476-5.525A18.908,18.908,0,0,1,22,23c0-.321.032-.634.048-.952.318-.016.631-.048.952-.048a18.908,18.908,0,0,1,4.917.668ZM43.962,41.745C43.971,41.5,44,41.252,44,41A21.023,21.023,0,0,0,23,20c-.252,0-.5.029-.745.038A18.988,18.988,0,1,1,43.962,41.745Z"></path></g></svg>