<svg xmlns="http://www.w3.org/2000/svg" xmlns:xlink="http://www.w3.org/1999/xlink" version="1.1" x="0px" y="0px" viewBox="0 0 100 100" enable-background="new 0 0 100 100" xml:space="preserve"><path fill="#000000" d="M48.2,41.7C45,34.3,37.7,29.2,29.2,29.2C17.7,29.2,8.3,38.5,8.3,50s9.3,20.8,20.8,20.8  c8.5,0,15.9-5.1,19.1-12.5h10.1l4.2-4.2l4.2,4.2l4.2-4.2l4.2,4.2l4.2-4.2l4.2,4.2l8.3-8.3l-8.3-8.3H48.2z M20.8,54.2  c-2.3,0-4.2-1.9-4.2-4.2c0-2.3,1.9-4.2,4.2-4.2S25,47.7,25,50C25,52.3,23.1,54.2,20.8,54.2z"></path></svg>