<svg xmlns="http://www.w3.org/2000/svg" xmlns:xlink="http://www.w3.org/1999/xlink" version="1.1" x="0px" y="0px" viewBox="0 0 52 52" style="enable-background:new 0 0 52 52;" xml:space="preserve"><style type="text/css">
	.st0{fill:none;stroke:#000000;stroke-width:2;stroke-miterlimit:10;}
	.st1{fill:none;stroke:#000000;stroke-width:2;stroke-linecap:round;stroke-linejoin:round;stroke-miterlimit:10;}
</style><g><g><path d="M19.5903645,46.648819c-9.6992188,0-17.590332-7.890625-17.590332-17.5898438s7.8911133-17.590332,17.590332-17.590332    s17.5903301,7.8911142,17.5903301,17.590332S29.2895832,46.648819,19.5903645,46.648819z M19.5903645,13.4686422    c-8.5966797,0-15.590332,6.9936533-15.590332,15.590333c0,8.5961914,6.9936523,15.5898438,15.590332,15.5898438    s15.5903301-6.9936523,15.5903301-15.5898438C35.1806946,20.4622955,28.1870441,13.4686422,19.5903645,13.4686422z"></path></g><g><path d="M19.5903645,40.4759674c-6.2954102,0-11.4169922-5.121582-11.4169922-11.4169922    s5.121582-11.4169922,11.4169922-11.4169922s11.4169922,5.121582,11.4169922,11.4169922    S25.8857746,40.4759674,19.5903645,40.4759674z M19.5903645,19.641983c-5.1923828,0-9.4169922,4.2246094-9.4169922,9.4169922    s4.2246094,9.4169922,9.4169922,9.4169922s9.4169922-4.2246094,9.4169922-9.4169922S24.7827473,19.641983,19.5903645,19.641983z"></path></g><g><path d="M19.5903645,34.4476471c-2.9716797,0-5.3891602-2.4174805-5.3891602-5.3886719    c0-2.9716797,2.4174805-5.3891602,5.3891602-5.3891602s5.3891602,2.4174805,5.3891602,5.3891602    C24.9795246,32.0301666,22.5620441,34.4476471,19.5903645,34.4476471z M19.5903645,25.6698151    c-1.8686523,0-3.3891602,1.5205078-3.3891602,3.3891602s1.5205078,3.3886719,3.3891602,3.3886719    s3.3891602-1.5200195,3.3891602-3.3886719S21.4590168,25.6698151,19.5903645,25.6698151z"></path></g><g><path d="M38.7817688,14.8870993H35.077179c-0.5522461,0-1-0.4477539-1-1v-3.7045898    c0-0.2651367,0.1054688-0.5195313,0.2929688-0.7070313l3.8305664-3.8305659    c0.2856445-0.2866211,0.7148438-0.3730469,1.0898438-0.2167969c0.3735352,0.1547852,0.6171875,0.5195313,0.6171875,0.9238281    v2.7045894h2.7041016c0.4042969,0,0.769043,0.2436523,0.9238281,0.6171875s0.0693359,0.8037109-0.2167969,1.0898438    L39.4888,14.5941305C39.3013,14.7816305,39.0469055,14.8870993,38.7817688,14.8870993z M36.077179,12.8870993h2.2905273    l1.8300781-1.8305664h-1.2900391c-0.5522461,0-1-0.4477539-1-1V8.7660055l-1.8305664,1.8305664V12.8870993z"></path></g><g><path d="M19.5903645,30.3739166c-0.2558594,0-0.5117188-0.0976563-0.7070313-0.2929688    c-0.390625-0.390625-0.390625-1.0234375,0-1.4140625L34.3701477,13.180068c0.390625-0.390625,1.0234375-0.390625,1.4140625,0    s0.390625,1.0234375,0,1.4140625L20.2973957,30.0809479C20.1020832,30.2762604,19.8462238,30.3739166,19.5903645,30.3739166z"></path></g><g><g><path d="M43.8164368,25.7572174c-0.1630859,0-0.324707-0.0395508-0.4711914-0.1181641l-3.2680664-1.7456055     c-0.2338867-0.1245117-0.4086914-0.3374023-0.4858398-0.5913086s-0.0498047-0.527832,0.0751953-0.7617188l1.7460938-3.2670898     c0.125-0.2338867,0.3374023-0.4086914,0.5913086-0.4858398l5.1835938-1.5737305     c0.3876953-0.1162109,0.8066406,0.0102539,1.0634766,0.3222656c0.2568359,0.3129883,0.2998047,0.7495117,0.1088867,1.105957     l-1.2739258,2.3852539l2.3852539,1.2744141c0.3569336,0.1904297,0.5634766,0.5771484,0.5239258,0.9794922     c-0.0395508,0.402832-0.3173828,0.7416992-0.7045898,0.859375l-5.1835938,1.5737305     C44.0117493,25.7430573,43.914093,25.7572174,43.8164368,25.7572174z M41.901886,22.6009674l2.0205078,1.0791016     l2.4770508-0.7519531l-1.1381836-0.6083984c-0.2338867-0.125-0.4086914-0.3374023-0.4858398-0.5913086     c-0.0766602-0.2539063-0.0498047-0.527832,0.0751953-0.7617188l0.6074219-1.1376953l-2.4770508,0.7519531L41.901886,22.6009674z"></path></g><g><path d="M19.5898762,30.3744049c-0.4287109,0-0.8251953-0.2783203-0.956543-0.7099609     c-0.1601563-0.5283203,0.1381836-1.0869141,0.6665039-1.2475586l20.9580059-6.3623047     c0.5263672-0.1601563,1.0864258,0.1376953,1.2475586,0.6665039c0.1601563,0.5283203-0.1381836,1.0869141-0.6665039,1.2475586     l-20.9580059,6.3623047C19.7842121,30.3602448,19.6860676,30.3744049,19.5898762,30.3744049z"></path></g></g></g></svg>