<svg class="dib h2 w2" fill="currentColor" xmlns="http://www.w3.org/2000/svg" viewBox="0 0 16 16" fill-rule="evenodd" clip-rule="evenodd" stroke-linejoin="round" stroke-miterlimit="1.414">
<path d="M8,14c-0.7,0-1.4-0.2-1.9-0.5c-0.5-0.3-1-0.8-1.2-1.4c-0.3-0.6-0.5-1.2-0.6-1.9C4.1,9.5,4,8.7,4,8c0-0.6,0-1.1,0.1-1.6 c0.1-0.5,0.2-1.1,0.4-1.6s0.4-1,0.7-1.4c0.3-0.4,0.7-0.7,1.2-1C6.8,2.1,7.4,2,8,2c0.7,0,1.4,0.2,1.9,0.5c0.5,0.3,1,0.8,1.2,1.4 c0.3,0.6,0.5,1.2,0.6,1.9C11.9,6.5,12,7.2,12,8c0,0.6,0,1.1-0.1,1.6c-0.1,0.5-0.2,1.1-0.4,1.6c-0.2,0.5-0.4,1-0.7,1.4 s-0.7,0.7-1.1,1C9.2,13.9,8.6,14,8,14z M9.4,9.4C9.8,9,10,8.5,10,8c0-0.5-0.2-1-0.6-1.4C9,6.2,8.6,6,8,6S7,6.2,6.6,6.6 C6.2,7,6,7.5,6,8c0,0.5,0.2,1,0.6,1.4C7,9.8,7.4,10,8,10S9,9.8,9.4,9.4z M8,16c4.4,0,8-3.6,8-8s-3.6-8-8-8S0,3.6,0,8S3.6,16,8,16z" fill-rule="nonzero" />
</svg>
