<?xml version="1.0" encoding="utf-8"?>
<!-- Generator: Adobe Illustrator 23.0.1, SVG Export Plug-In . SVG Version: 6.00 Build 0)  -->
<svg version="1.1" xmlns="http://www.w3.org/2000/svg" xmlns:xlink="http://www.w3.org/1999/xlink" x="0px" y="0px"
	 viewBox="0 0 118.4 136.7" style="enable-background:new 0 0 118.4 136.7;" xml:space="preserve">
<style type="text/css">
	.st0{fill:#336699;stroke:#33CCFF;stroke-width:3;}
	.st1{display:none;fill:#FFFFFF;stroke:#000000;stroke-width:0.75;}
	.st2{fill:#336699;stroke:#FFFFFF;stroke-width:3;}
	.st3{fill:#FFFFFF;}
	.st4{font-family:'Ubuntu';}
	.st5{font-size:18px;}
	.st6{display:none;}
	.st7{display:inline;}
	.st8{fill:#33CCFF;}
</style>
<g id="hexagon">
	<polygon class="st0" points="59.2,2.3 2,35.3 2,101.4 59.2,134.4 116.4,101.4 116.4,35.3 	"/>
	<polygon class="st1" points="59.2,5.6 4.9,37 4.9,99.7 59.2,131.1 113.5,99.7 113.5,37 	"/>
	<polygon class="st1" points="62.7,13.5 11.7,43 11.7,101.9 62.7,131.3 113.7,101.9 113.7,43 	"/>
</g>
<g id="Layer_6">
	<polygon class="st2" points="59.2,5.6 4.9,37 4.9,99.7 59.2,131.1 113.5,99.7 113.5,37 	"/>
</g>
<g id="text">
	<text transform="matrix(1 0 0 1 43.67 72.3602)" class="st3 st4 st5">SNPSEA</text>
</g>
<g id="Layer_4" class="st6">
	<path class="st7" d="M98,66.1C94.2,84.3,78.1,98,58.8,98c-19.3,0-35.4-13.7-39.1-31.9c-0.5,2.6-0.8,5.3-0.8,8.1
		c0,22.1,17.9,40,40,40c22.1,0,40-17.9,40-40C98.8,71.4,98.5,68.7,98,66.1"/>
	<path class="st7" d="M40.4,33.5c-1.8,1.2-3.5,2.6-5.1,4.1c-12.6,12.6-12.6,33.1,0,45.8c6.3,6.3,14.6,9.5,22.9,9.5
		c8.3,0,16.6-3.2,22.9-9.5c1.6-1.6,3-3.3,4.1-5.1c-5.4,3.6-11.6,5.3-17.8,5.3c-8.3,0-16.6-3.2-22.9-9.5C33.5,63.1,32.1,46,40.4,33.5
		"/>
	<path class="st7" d="M67.4,23c-14.7,0-26.7,11.8-27,26.5C40.2,64.4,52.1,76.7,67,76.9c0.2,0,0.3,0,0.5,0c1.7,0,3.4-0.2,5-0.5
		C49,48.7,73.3,23.6,73.3,23.6c-1.7-0.4-3.6-0.6-5.4-0.6C67.7,23,67.6,23,67.4,23"/>
</g>
<g id="Layer_5">
	<g>
		<path class="st3" d="M62.7,26.3c1.6,0.2,3.2,0.6,4.8,0.9c1.4,0.3,2.8,0.8,4.2,1.2c1.2,0.4,2.4,0.9,3.5,1.4
			c0.9,0.4,1.7,0.8,2.5,1.2c0.9,0.5,1.7,0.9,2.5,1.5c0.8,0.5,1.6,1,2.3,1.6c1.2,0.8,2.3,1.8,3.4,2.7c0.1,0.1,0.2,0.1,0.2,0.3
			c-0.5-0.1-0.9-0.4-1.2-0.7c-0.6-0.5-1.2-0.8-1.9-1.1c-0.9-0.5-1.9-1-2.9-1.4C79,33.4,78,33,76.9,32.7c-1.1-0.3-2.2-0.6-3.3-0.8
			c-0.2-0.1-0.5-0.2-0.7-0.2c-0.1-0.1-0.2-0.1-0.4-0.1c0,0,0,0,0,0c-0.4-0.2-0.8-0.3-1.2-0.4c0,0,0,0,0,0C71.1,31,70.9,31,70.8,31
			c0,0-0.1,0-0.1,0c-0.2,0-0.4-0.1-0.6-0.1c0,0,0,0,0,0c-0.4-0.2-0.9-0.2-1.3-0.4C68,30.2,67.2,30,66.4,30l0,0l0,0
			c-0.1,0-0.1-0.1-0.2-0.1c-1-0.2-2-0.3-3-0.5c-1-0.1-2.1-0.3-3.1-0.3c-2.3-0.2-4.6-0.1-6.9,0c0,0,0,0-0.1,0c-0.3,0-0.6,0-1,0.1
			c0,0-0.1,0-0.1,0c-0.3,0-0.7,0-1,0.1c-0.8,0.1-1.5,0.1-2.3,0.3l0,0l0,0c-0.3,0-0.5,0-0.8,0.1c-0.1,0-0.2,0-0.3,0c0,0-0.1,0-0.1,0
			l0,0c-0.5,0.1-1,0.1-1.5,0.2l0,0l0,0c-0.2,0-0.4,0-0.6,0.1c0,0-0.1,0-0.1,0c-0.3,0.1-0.7,0.1-1,0.3c-0.8,0.2-1.7,0.3-2.5,0.6
			c-1.5,0.5-2.9,0.9-4.4,1.5c-1,0.4-1.9,0.8-2.9,1.2c-0.9,0.4-1.8,0.9-2.7,1.4c-1.4,0.7-2.7,1.5-4,2.4c-1.1,0.8-2.2,1.5-3.2,2.4
			c-0.5,0.4-1,0.8-1.5,1.2c-0.5,0.4-0.9,0.8-1.4,1.3c-0.8,0.8-1.6,1.6-2.4,2.4c-0.4,0.4-0.8,0.9-1.2,1.3c-0.4,0.5-0.9,1-1.3,1.6
			c-0.6,0.8-1.2,1.6-1.8,2.4c-0.8,1-1.5,2.1-2.1,3.2c-0.8,1.3-1.5,2.7-2.2,4.1c-0.4,0.9-0.8,1.9-1.3,2.8c-0.3,0.6-0.3,1.2-0.7,1.8
			c0.3-1.2,0.6-2.4,1-3.6c0.5-1.4,1-2.8,1.6-4.1c0.5-1.3,1.1-2.5,1.8-3.7c0.4-0.8,0.9-1.6,1.4-2.3c0.5-0.8,1-1.5,1.5-2.3
			c1.1-1.6,2.4-3.2,3.7-4.6c0.7-0.8,1.4-1.5,2.2-2.2c0.9-0.9,1.9-1.8,2.9-2.6c0.5-0.4,1-0.8,1.5-1.2c0.7-0.5,1.5-1,2.2-1.6
			c0.7-0.5,1.4-0.9,2.2-1.3c0.8-0.5,1.7-1,2.6-1.4c0.8-0.4,1.5-0.8,2.4-1.1c0.6-0.2,1.2-0.6,1.8-0.8c1.8-0.7,3.7-1.3,5.6-1.8
			c2.7-0.7,5.5-1.2,8.4-1.4c0.3,0,0.7,0,1-0.1c2.1,0,4.1,0,6.2,0c0.5,0.1,1,0.1,1.5,0.1c0,0,0,0,0.1,0
			C61.1,26.1,61.9,26.2,62.7,26.3z"/>
		<path class="st8" d="M44.7,51.8c-1,0.8-1.9,1.8-2.7,2.8c-0.9,1.2-1.7,2.5-2.3,3.9c-0.8,1.9-1,3.9-1,6c0,1.7,0.4,3.3,0.8,4.9
			c0.4,1.3,0.8,2.5,1.4,3.8c0.4,0.8,0.8,1.7,1.3,2.5c0.5,0.8,0.9,1.5,1.4,2.3c0.9,1.3,1.9,2.5,3,3.7c1.1,1.2,2.3,2.3,3.6,3.3
			c0.6,0.5,1.1,0.9,1.7,1.3c0.9,0.6,1.8,1.3,2.8,1.8c1.2,0.7,2.4,1.4,3.7,1.9c1.7,0.8,3.5,1.4,5.3,2c0.2,0.1,0.5,0.1,0.7,0.1
			c3,0.9,6,1.1,9.1,1.1c1.5,0,2.9,0,4.4,0.4c0.4,0.1,0.8,0.2,1.2,0.4c0.4,0.2,0.7,0.4,0.7,0.8c0,0.4-0.2,0.7-0.6,0.9
			c-0.8,0.6-1.7,0.9-2.7,1.1c-2.3,0.6-4.7,0.7-7.1,0.6c-1.8-0.1-3.6-0.4-5.3-0.7c-1.3-0.2-2.6-0.6-3.9-0.9c-1.3-0.3-2.6-0.8-3.9-1.2
			c-0.1,0-0.2-0.1-0.3-0.1c0-0.1-0.1-0.1-0.2-0.1c0,0.1,0.1,0.1,0.2,0.1c0,0.2,0.2,0.2,0.3,0.4c0.5,0.5,1.1,0.9,1.6,1.3
			c0.7,0.5,1.4,1,2.2,1.4c0.2,0.1,0.4,0.3,0.7,0.4c1.6,0.9,3.3,1.6,5,2.2c2,0.7,4,1.1,6.1,1.5c3.2,0.6,6.4,0.6,9.7,0.5
			c2.8-0.1,5.5-0.5,8.2-1c0.8-0.1,1.6-0.3,2.4-0.5c0.1,0,0.2-0.1,0.3,0c-0.4,0.2-0.7,0.3-1,0.4c-0.8,0.2-1.6,0.6-2.4,0.8
			c-1.4,0.3-2.8,0.9-4.3,1.2c-1.2,0.2-2.3,0.6-3.5,0.7c-2.5,0.4-4.9,0.8-7.4,0.9c-1.9,0.1-3.9,0.1-5.8,0.1c-2.4-0.1-4.9-0.4-7.3-0.8
			c-1.4-0.2-2.7-0.6-4.1-0.9c-1.3-0.3-2.6-0.7-3.9-1.2c-1.4-0.4-2.7-1-4.1-1.6c-0.9-0.4-1.8-0.8-2.6-1.3c-1-0.5-1.9-1.1-2.9-1.6
			c-1-0.5-2-1.2-2.9-1.9c-0.6-0.4-1.1-0.9-1.6-1.3c-0.7-0.7-1.5-1.4-2.2-2.1c-0.5-0.5-1-1.1-1.4-1.7c-0.7-0.8-1.3-1.7-1.9-2.5
			c-0.3-0.4-0.6-0.8-0.9-1.2c-0.3-0.7-0.9-1.3-1.2-2v0c0-0.2-0.2-0.3-0.3-0.4v0c-0.2-0.4-0.5-0.9-0.7-1.3c0.2,0.6,0.2,1.3,0.5,1.9
			c0.4,1.1,0.8,2.2,1.2,3.3c0.4,0.9,0.8,1.7,1.2,2.6c0.1,0.3,0.3,0.5,0.4,0.8c0.6,1,1.1,2,1.7,2.9c0.7,1.1,1.4,2.1,2.3,3.1
			c0.4,0.5,0.8,0.9,1.1,1.4c0.3,0.4,0.7,0.9,1.1,1.3c0.5,0.5,1,1.1,1.5,1.6c0.4,0.4,0.8,0.8,1.2,1.2c0.5,0.4,0.9,0.9,1.4,1.3
			c0.2,0.3,0.4,0.5,0.7,0.6c0.7,0.7,1.5,1.3,2.3,1.9c0.6,0.4,1.2,0.9,1.8,1.3c0.8,0.5,1.5,1,2.3,1.5c0.8,0.5,1.7,1,2.5,1.5
			c1.1,0.7,2.3,1.3,3.5,1.9c1.1,0.5,2.1,1,3.2,1.4c0.1,0.1,0.3,0.2,0.4,0.2c0.3,0.2,0.7,0.2,1,0.3c0.2,0.1,0.4,0.1,0.7,0.2
			c-0.2,0.1-0.3,0-0.4,0c-1.5-0.3-3-0.7-4.4-1.1c-1.3-0.4-2.6-0.8-3.9-1.3c-1.2-0.4-2.3-0.9-3.4-1.4c-0.9-0.4-1.9-0.8-2.8-1.3
			c-0.9-0.5-1.9-0.9-2.7-1.4c-0.2-0.1-0.3-0.2-0.5-0.2c0,0-0.1,0-0.1-0.1l0,0c0,0,0,0-0.1-0.1l0,0c-0.6-0.4-1.2-0.7-1.8-1.1
			c-1-0.6-2-1.3-3-1.9l0,0c0-0.1-0.1-0.1-0.1-0.1c-0.7-0.5-1.3-1-2-1.5c-0.6-0.5-1.2-1-1.8-1.5c-1.8-1.5-3.4-3.1-4.9-4.9
			c-0.5-0.5-0.9-1.1-1.3-1.6c-0.8-1-1.5-2-2.3-3.1c-0.4-0.6-0.8-1.2-1.1-1.8c-0.5-1-1.1-1.9-1.6-2.9c-0.5-1-0.9-2-1.3-3
			c-0.6-1.5-1-3-1.5-4.5c-0.1-0.2-0.1-0.4-0.2-0.7c-0.5,0.7-0.7,1.5-0.7,2.2c-0.2,1.8,0.2,3.6,0.6,5.4c0.3,1.6,0.9,3.2,1.4,4.8
			c0.4,1.3,1,2.6,1.4,3.8c0.2,0.6,0.4,1.2,0.5,1.9c0,0.1,0.1,0.3-0.1,0.4c-0.2,0.1-0.3-0.1-0.4-0.2c-0.8-1-1.4-2.1-2-3.2
			c-0.9-1.6-1.7-3.4-2.5-5.1c-0.7-1.5-1.2-3-1.8-4.5c0,0,0-0.1,0-0.1l0,0c-0.1-0.7-0.4-1.3-0.6-2c0-0.1-0.1-0.2-0.1-0.3
			c0,0,0-0.1,0-0.1c0-0.3-0.2-0.6-0.3-0.9c0,0,0-0.1,0-0.1c0-0.1,0-0.2,0-0.3c-0.4-1.6-0.8-3.3-0.9-4.9c0-0.4,0-0.8,0-1.2
			c0,0.2-0.1,0.5-0.1,0.7c-0.2,1.5-0.3,2.9-0.4,4.4c-0.1,0.1,0,0.2,0,0.4c0,1.1-0.1,2.3,0,3.4c0,1,0.1,2.1,0.2,3.1
			c0,0.9,0.3,1.8,0.4,2.8c0.1,0.9,0.4,1.7,0.7,2.6c0.3,0.9,0.8,1.8,1.1,2.7c0.1,0.4,0.2,0.7,0.1,1.1c0,0.3-0.2,0.3-0.4,0.2
			c-0.3-0.1-0.5-0.3-0.7-0.6c-0.8-1-1.5-2.1-2.1-3.2c-0.8-1.5-1.4-3.1-1.9-4.7c0-0.1-0.1-0.2-0.2-0.3c0-0.3-0.2-0.6-0.3-1
			c-0.3-1-0.6-2.1-0.8-3.1c0,0,0,0,0-0.1c0-0.5-0.1-0.9-0.3-1.4c-0.1-0.9-0.3-1.7-0.4-2.6c-0.2-1.1-0.3-2.2-0.3-3.3
			c-0.1-2.3-0.1-4.5,0.1-6.8c0.1-1.6,0.5-3.2,0.8-4.8c0.2-1.2,0.7-2.3,1.1-3.5c0.2-0.6,0.5-1.1,0.8-1.7c0.5-1.1,1.1-2.2,1.7-3.3
			c0.4-0.7,0.8-1.4,1.3-2.1c0.5-0.8,1-1.5,1.6-2.3c0.4-0.6,0.8-1.1,1.2-1.6c0.4-0.5,0.9-1,1.3-1.5c0.7-0.8,1.5-1.6,2.3-2.4
			c0.4-0.4,0.9-0.9,1.4-1.3c0.6-0.5,1.2-1,1.8-1.5c0.8-0.7,1.6-1.3,2.5-1.9c0.6-0.4,1.3-0.8,1.9-1.2c0.9-0.5,1.8-1.1,2.7-1.5
			c1-0.5,2-1,3-1.4c1.1-0.5,2.2-0.9,3.4-1.3c1.1-0.4,2.2-0.9,3.4-1.2c0.7-0.2,1.4-0.4,2-0.7c0.2-0.1,0.5-0.1,0.7-0.1
			c0.6-0.1,1.2-0.3,1.8-0.5c0,0,0,0,0,0c0.2,0,0.3-0.1,0.5-0.1c0,0,0.1,0,0.1,0c0.3-0.1,0.7-0.1,1-0.3c0,0,0.1,0,0.1,0
			c0.1,0,0.2,0,0.3-0.1c0,0,0.1,0,0.1,0c0.5,0,1-0.2,1.5-0.3c0,0,0.1-0.1,0.1-0.1c0.1,0,0.3,0.1,0.4,0c0.1,0,0.2,0,0.3-0.1h0
			c0.5-0.1,1-0.1,1.5-0.3c0,0,0,0,0.1,0c0.4,0,0.8-0.1,1.2-0.1c0,0,0,0,0.1,0c0.4,0,0.7,0,1.1-0.1c0,0,0,0,0,0c0.4,0,0.9,0,1.3-0.1
			l0,0l0,0c0.7,0,1.5-0.1,2.2-0.1c0.7,0,1.3,0,2,0c0.8,0,1.6,0.1,2.4,0.1c0,0,0,0,0.1,0c0.3,0.1,0.7,0,1.1,0.2
			c0,0.1-0.2,0.1-0.2,0.2c-1.1-0.1-2.2,0.2-3.2,0.4c-1.8,0.3-3.6,0.6-5.4,1.1c-1.2,0.3-2.4,0.6-3.5,1c-1.3,0.4-2.6,0.9-3.8,1.3
			c-1.1,0.4-2.2,0.9-3.3,1.4c-1,0.5-2,0.9-2.9,1.5c-0.8,0.4-1.7,0.9-2.5,1.4c-0.7,0.5-1.5,1-2.2,1.5c-1,0.7-1.9,1.4-2.7,2.2
			c-0.8,0.7-1.6,1.5-2.3,2.2c-0.4,0.4-0.8,0.9-1.2,1.3c-0.4,0.5-0.8,0.9-1.2,1.4c-0.4,0.5-0.9,1.1-1.3,1.6c-0.5,0.7-1.1,1.4-1.6,2.1
			c-0.5,0.7-1.1,1.5-1.5,2.3c-0.5,0.8-0.9,1.5-1.3,2.3c-0.7,1.3-1.2,2.7-1.4,4.2c-0.1,0.5-0.1,1.1,0.1,1.6c0.1,0.2,0.2,0.4,0.4,0.5
			c0.3,0,0.4-0.2,0.5-0.4c0.4-0.7,0.9-1.4,1.2-2.2c0.1-0.2,0.2-0.4,0.3-0.6c0.5-0.8,0.9-1.7,1.4-2.6c0.4-0.7,0.8-1.5,1.3-2.2
			c0.6-1,1.2-1.9,1.9-2.9c1.3-1.7,2.6-3.3,4.2-4.7c0.8-0.7,1.7-1.4,2.6-2c0.9-0.6,1.9-1.1,2.8-1.6c0.8-0.4,1.5-0.8,2.4-1.1
			c0.3-0.1,0.7-0.3,1-0.5c1-0.5,2.1-0.9,3.2-1.2c2.1-0.7,4.3-1.2,6.6-1.3c0.1,0,0.3,0,0.4,0c-0.1,0.2-0.3,0.2-0.4,0.2
			c-0.7,0.2-1.2,0.6-1.9,0.8c-0.8,0.3-1.6,0.8-2.4,1.1c-0.8,0.4-1.6,0.8-2.4,1.3c-0.9,0.5-1.7,1-2.6,1.5c-0.7,0.5-1.4,0.9-2.1,1.4
			c-0.6,0.5-1.3,0.9-1.9,1.4c-0.6,0.5-1.3,1-1.9,1.6c-0.4,0.4-0.9,0.8-1.3,1.2c-0.5,0.5-1,1-1.4,1.6c-0.5,0.6-0.9,1.3-1.4,2
			c-0.3,0.5-0.5,1-0.8,1.5c-0.5,0.7-0.8,1.6-1.2,2.4c-0.9,2.2-1.6,4.5-1.7,7c0,0.6,0,1.2,0.2,1.8c0.1,0.3,0.2,0.6,0.5,0.6
			c0.3,0,0.4-0.3,0.5-0.5c0.3-0.7,0.6-1.5,0.9-2.2c0.5-1.2,1-2.5,1.5-3.6c0.4-1,0.9-1.9,1.5-2.8c1.2-2.1,2.6-4,4.4-5.6
			c0.8-0.7,1.6-1.3,2.4-1.9c1.3-0.9,2.6-1.8,4.1-2.5c1.2-0.6,2.5-1.1,3.8-1.4c0.7-0.2,1.4-0.2,2.1-0.1c-0.8,0.3-1.5,0.7-2.2,1.1
			c-0.9,0.5-1.8,1-2.7,1.6C46.2,50.7,45.4,51.2,44.7,51.8z"/>
	</g>
</g>
<g id="guides" class="st6">
</g>
</svg>
