<svg class="dib h2 w2" fill="currentColor" xmlns="http://www.w3.org/2000/svg" viewBox="0 0 16 16" fill-rule="evenodd" clip-rule="evenodd" stroke-linejoin="round" stroke-miterlimit="1.414"><path d="M14,2.1H2c-1.1,0-2,0.9-2,2v7.7c0,1.1,0.9,2,2,2h12c1.1,0,2-0.9,2-2V4.1C16,3,15.1,2.1,14,2.1z M2,2.7h12
		c0.5,0,1,0.3,1.2,0.7L9.1,9.2c-0.6,0.5-1.5,0.5-2.1,0L0.8,3.4C1,3,1.5,2.7,2,2.7z M0.6,12c0-0.1,0-0.1,0-0.2V4.1c0-0.1,0-0.1,0-0.2
		l4.3,4L0.6,12z M14,13.3H2c-0.5,0-1-0.3-1.2-0.7l4.5-4.2l1.3,1.2C7,10,7.5,10.2,8,10.2S9,10,9.4,9.6l1.3-1.2l4.5,4.2
		C15,13,14.5,13.3,14,13.3z M15.4,4.1v7.7c0,0.1,0,0.1,0,0.2l-4.3-4l4.3-4C15.4,4,15.4,4.1,15.4,4.1z"/>
</svg>
