<svg class="dib h2 w2" fill="currentColor" xmlns="http://www.w3.org/2000/svg" viewBox="0 0 16 16" fill-rule="evenodd" clip-rule="evenodd" stroke-linejoin="round" stroke-miterlimit="1.414">
<path d="M14.6,2.2v5.4c0,0.2-0.2,0.5-0.5,0.5H14c-0.2,0-0.5-0.2-0.5-0.5V2.2c0-0.2,0-0.4,0.3-0.4V1.1L11.4,3c0,0.1,0.1,0.1,0.1,0.1
	c0.2,0.4,0.3,0.8,0.3,1.4c0,0.4-0.1,0.8-0.2,1.2c-0.1,0.3-0.3,0.6-0.5,0.8c-0.2,0.2-0.4,0.4-0.6,0.6c-0.2,0.2-0.4,0.4-0.5,0.6
	C9.8,7.8,9.7,8,9.7,8.3c0,0.2,0.1,0.4,0.3,0.6c0.2,0.2,0.4,0.4,0.7,0.6c0.3,0.2,0.5,0.4,0.8,0.7c0.3,0.2,0.5,0.6,0.7,0.9
	c0.2,0.4,0.3,0.8,0.3,1.3c0,0.6-0.2,1.2-0.5,1.6c-0.3,0.5-0.7,0.9-1.2,1.2c-0.5,0.3-1,0.5-1.6,0.6C8.6,15.9,8.1,16,7.5,16
	c-0.4,0-0.7,0-1.1-0.1c-0.4-0.1-0.7-0.2-1.1-0.3c-0.4-0.1-0.7-0.3-1-0.5c-0.3-0.2-0.5-0.5-0.7-0.8c-0.2-0.3-0.3-0.7-0.3-1.1
	c0-0.5,0.1-0.9,0.4-1.3c0.3-0.4,0.6-0.8,1.1-1c0.8-0.5,2-0.8,3.6-0.9C8.1,9.5,8,9.1,8,8.7C8,8.4,8,8.2,8.1,7.9c-0.2,0-0.4,0-0.6,0
	C6.7,8,5.9,7.7,5.3,7.1C4.7,6.5,4.4,5.8,4.4,4.9c0-0.1,0-0.2,0-0.3H0.9L6.2,0l8.9,0l-0.8,0.6v1.1C14.6,1.8,14.6,2,14.6,2.2z M9.8,11
	c0,0-0.2-0.1-0.4-0.3c-0.2-0.1-0.3-0.2-0.3-0.2c-0.1,0-0.2,0-0.4,0c-0.4,0-0.8,0-1.2,0.1c-0.4,0.1-0.8,0.2-1.1,0.3
	c-0.4,0.2-0.7,0.4-0.9,0.7c-0.2,0.3-0.4,0.7-0.4,1.1c0,0.4,0.1,0.8,0.3,1.1c0.2,0.3,0.5,0.6,0.8,0.7c0.3,0.2,0.7,0.3,1.1,0.4
	c0.4,0.1,0.7,0.1,1.1,0.1c0.8,0,1.4-0.2,2-0.5c0.5-0.3,0.8-0.9,0.8-1.6c0-0.1,0-0.3-0.1-0.4c0-0.1-0.1-0.3-0.1-0.4
	c0-0.1-0.1-0.2-0.2-0.4c-0.1-0.1-0.2-0.2-0.3-0.3c-0.1-0.1-0.2-0.2-0.3-0.3C10,11.2,9.9,11.1,9.8,11L9.8,11z M9.7,6.9
	C10,6.5,10.2,6,10.2,5.5c0-0.5-0.1-1-0.2-1.5C9.8,3.4,9.5,3,9.1,2.5C8.7,2.1,8.3,1.9,7.8,1.9c-0.6,0-1,0.2-1.3,0.6
	C6.2,2.9,6.1,3.4,6.1,4c0,0.5,0.1,1,0.2,1.5c0.2,0.5,0.4,1,0.8,1.4c0.4,0.4,0.8,0.6,1.3,0.6C9,7.4,9.4,7.2,9.7,6.9L9.7,6.9z" fill-rule="nonzero"/>
</svg>
