<svg class="dib h2 w2" fill="currentColor" xmlns="http://www.w3.org/2000/svg" viewBox="0 0 16 16" fill-rule="evenodd" clip-rule="evenodd" stroke-linejoin="round" stroke-miterlimit="1.414">
  <path d="M11.9,10.4c-0.2,0.1-0.5,0.1-0.8,0c-0.3,0-0.7-0.1-1-0.3c0.6-0.1,1-0.1,1.4,0.1C11.6,10.2,11.8,10.3,11.9,10.4 M8.6,9.9 C8.6,9.9,8.5,9.9,8.6,9.9C8.4,9.9,8.2,10,8.1,10l-0.2,0.1c-0.4,0.1-0.8,0.2-1.2,0.3C6.8,10,6.9,9.6,7.1,9.3C7.2,9,7.3,8.7,7.4,8.5 c0.1,0.1,0.1,0.2,0.2,0.3C7.8,9.1,8.2,9.5,8.6,9.9 M7.6,5.7c0,0.5-0.1,0.9-0.2,1.3c-0.2-0.5-0.3-1.1,0-1.6c0.1-0.1,0.1-0.2,0.1-0.2 C7.5,5.3,7.6,5.4,7.6,5.7 M5.5,11.5c-0.1,0.2-0.2,0.3-0.3,0.5c-0.3,0.4-0.7,0.8-0.9,0.8c0,0,0,0-0.1,0c0,0,0,0,0-0.1 c0-0.1,0.2-0.4,0.5-0.6C4.9,11.9,5.1,11.7,5.5,11.5 M12.6,10.4c0-0.5-0.8-0.8-0.8-0.8c-0.3-0.1-0.6-0.2-1-0.2 c-0.4,0-0.8,0.1-1.4,0.2C8.8,9.3,8.4,8.9,8.1,8.4C7.9,8.2,7.8,8,7.7,7.8C8,7.1,8.2,6.4,8.2,5.6c0-0.6-0.3-1-0.7-1 C7.2,4.6,7,4.8,6.8,5.2C6.4,5.9,6.5,6.7,7,7.8C6.9,8.2,6.7,8.6,6.5,9.1c-0.2,0.5-0.4,1.1-0.6,1.6c-0.7,0.3-1.2,0.6-1.6,1 c-0.3,0.3-0.6,0.6-0.7,1c0,0.2,0.1,0.4,0.2,0.5c0.1,0.1,0.3,0.2,0.5,0.2c0.6,0,1.3-0.9,1.4-1.1c0.2-0.4,0.5-0.8,0.7-1.2 c0.5-0.2,1.1-0.3,1.7-0.5l0.2-0.1c0.2,0,0.3-0.1,0.5-0.1c0.2,0,0.3-0.1,0.5-0.1c0.6,0.4,1.2,0.6,1.8,0.7c0.5,0.1,1,0,1.3-0.1 C12.6,10.7,12.6,10.5,12.6,10.4 M13.8,14.5c0,0.9-0.8,0.9-0.9,0.9H3.1c-0.9,0-0.9-0.8-0.9-0.9v-13c0-0.9,0.8-0.9,0.9-0.9h6.6l0,0 v2.6c0,0.5,0.3,1.5,1.5,1.5h2.6l0,0C13.8,4.7,13.8,14.5,13.8,14.5z M13.2,4.1h-2c-0.9,0-0.9-0.8-0.9-0.9v-2L13.2,4.1z M14.4,14.5 V4.4l-4.1-4.1v0h0L10,0H3.1C2.6,0,1.6,0.3,1.6,1.5v13C1.6,15,1.9,16,3.1,16h9.8C13.4,16,14.4,15.7,14.4,14.5"/>
</svg>

