<svg version="1.1" id="Layer_1" xmlns="http://www.w3.org/2000/svg" xmlns:xlink="http://www.w3.org/1999/xlink" x="0px" y="0px"
	 viewBox="0 0 16 16" style="enable-background:new 0 0 16 16;" xml:space="preserve">
   <path d="M14.1,1.6H9.2V1.2C9.2,0.5,8.6,0,8,0C7.4,0,6.8,0.5,6.8,1.2l0,0v0.4H1.9c-0.7,0-1.3,0.6-1.3,1.3c0,0.5,0.3,1,0.9,1.2v7.1
		c0,0.6,0.5,1,1,1h5.1v1.6l-2.1,1.7c-0.2,0.1-0.2,0.3-0.1,0.5C5.6,16,5.8,16,5.9,15.9c0,0,0,0,0,0L8,14.3l2.1,1.6
		c0.2,0.1,0.4,0.1,0.5-0.1c0.1-0.2,0.1-0.4-0.1-0.5l-2.1-1.6v-1.6h5.1c0.6,0,1-0.5,1-1V4c0.7-0.2,1-0.9,0.8-1.6
		C15.1,1.9,14.6,1.6,14.1,1.6z M7.5,1.2c0-0.3,0.2-0.5,0.5-0.5c0.3,0,0.5,0.2,0.5,0.5v0.4h-1V1.2z M13.5,11.5H2.5
		c-0.2,0-0.3-0.2-0.3-0.3V4.1h11.6v7.1C13.8,11.3,13.7,11.5,13.5,11.5z M14.1,3.4H1.9c-0.3,0-0.6-0.3-0.6-0.6c0-0.3,0.3-0.6,0.6-0.6
		h12.2c0.3,0,0.6,0.3,0.6,0.6C14.7,3.1,14.4,3.4,14.1,3.4z"/>
</svg>

