<?xml version="1.0" standalone="no"?>
<!DOCTYPE svg PUBLIC "-//W3C//DTD SVG 20010904//EN"
 "http://www.w3.org/TR/2001/REC-SVG-20010904/DTD/svg10.dtd">
<svg version="1.0" xmlns="http://www.w3.org/2000/svg"
 width="500.000000pt" height="500.000000pt" viewBox="0 0 500.000000 500.000000"
 preserveAspectRatio="xMidYMid meet">
<metadata>
Created by potrace 1.11, written by Peter Selinger 2001-2013
</metadata>
<g transform="translate(0.000000,500.000000) scale(0.100000,-0.100000)"
fill="#000000" stroke="none">
<path d="M1260 4970 l-1095 -5 -38 -24 c-21 -13 -50 -42 -65 -64 l-27 -41 -3
-2320 c-3 -2548 -7 -2369 56 -2429 61 -59 -106 -54 2407 -62 2152 -7 2313 -6
2350 9 52 22 93 61 116 111 18 39 19 123 19 2355 0 2232 -1 2316 -19 2355 -23
49 -64 89 -113 109 -33 14 -174 16 -1265 14 -675 -2 -1721 -5 -2323 -8z m2381
-1103 c162 -2 166 -3 207 -30 23 -15 54 -46 69 -69 l28 -42 0 -1306 0 -1306
-28 -42 c-15 -23 -46 -54 -69 -69 l-42 -28 -1295 -3 c-873 -2 -1308 0 -1332 7
-45 13 -104 72 -121 120 -9 28 -12 324 -13 1331 l0 1295 27 47 c29 49 80 87
130 97 26 5 2046 4 2439 -2z"/>
</g>
</svg>
